<svg xmlns="http://www.w3.org/2000/svg" width="67" height="78"><rect width="100%" height="100%" x="0" y="0" fill="#689738"/><rect width="14.333" height="14.333" x="-7.167" y="-7.167" fill="#ddd" fill-opacity=".055" stroke="#000" stroke-opacity=".02" stroke-width="1"/><rect width="14.333" height="14.333" x="60.659" y="-7.167" fill="#ddd" fill-opacity=".055" stroke="#000" stroke-opacity=".02" stroke-width="1"/><rect width="14.333" height="14.333" x="-7.167" y="71.152" fill="#ddd" fill-opacity=".055" stroke="#000" stroke-opacity=".02" stroke-width="1"/><rect width="14.333" height="14.333" x="60.659" y="71.152" fill="#ddd" fill-opacity=".055" stroke="#000" stroke-opacity=".02" stroke-width="1"/><rect width="14.333" height="14.333" x="26.746" y="12.413" fill="#ddd" fill-opacity=".141" stroke="#000" stroke-opacity=".02" stroke-width="1"/><rect width="14.333" height="14.333" x="-7.167" y="31.993" fill="#222" fill-opacity=".029" stroke="#000" stroke-opacity=".02" stroke-width="1"/><rect width="14.333" height="14.333" x="60.659" y="31.993" fill="#222" fill-opacity=".029" stroke="#000" stroke-opacity=".02" stroke-width="1"/><rect width="14.333" height="14.333" x="26.746" y="51.572" fill="#ddd" fill-opacity=".107" stroke="#000" stroke-opacity=".02" stroke-width="1"/><polyline fill="#222" fill-opacity=".115" stroke="#000" stroke-opacity=".02" stroke-width="1" points="0 0 12.413 7.167 0 14.333 0 0" transform="translate(7.166666666666667,-7.166666666666667) rotate(0,7.166666666666667,6.206515393788477)"/><polyline fill="#222" fill-opacity=".115" stroke="#000" stroke-opacity=".02" stroke-width="1" points="0 0 12.413 7.167 0 14.333 0 0" transform="translate(7.166666666666667,85.48545648364116) rotate(0,7.166666666666667,6.206515393788477) scale(1,-1)"/><polyline fill="#222" fill-opacity=".063" stroke="#000" stroke-opacity=".02" stroke-width="1" points="0 0 12.413 7.167 0 14.333 0 0" transform="translate(60.65939490848725,-7.166666666666667) rotate(0,7.166666666666667,6.206515393788477) scale(-1,1)"/><polyline fill="#222" fill-opacity=".063" stroke="#000" stroke-opacity=".02" stroke-width="1" points="0 0 12.413 7.167 0 14.333 0 0" transform="translate(60.65939490848725,85.48545648364116) rotate(0,7.166666666666667,6.206515393788477) scale(-1,-1)"/><polyline fill="#222" fill-opacity=".063" stroke="#000" stroke-opacity=".02" stroke-width="1" points="0 0 12.413 7.167 0 14.333 0 0" transform="translate(41.07969745424362,12.413030787576954)"/><polyline fill="#222" fill-opacity=".15" stroke="#000" stroke-opacity=".02" stroke-width="1" points="0 0 12.413 7.167 0 14.333 0 0" transform="translate(26.74636412091029,12.413030787576954) scale(-1,1)"/><polyline fill="#222" fill-opacity=".133" stroke="#000" stroke-opacity=".02" stroke-width="1" points="0 0 12.413 7.167 0 14.333 0 0" transform="translate(41.07969745424362,65.90575902939753) scale(1,-1)"/><polyline fill="#222" fill-opacity=".098" stroke="#000" stroke-opacity=".02" stroke-width="1" points="0 0 12.413 7.167 0 14.333 0 0" transform="translate(26.74636412091029,65.90575902939753) scale(-1,-1)"/><polyline fill="#ddd" fill-opacity=".072" stroke="#000" stroke-opacity=".02" stroke-width="1" points="0 0 12.413 7.167 0 14.333 0 0" transform="translate(7.166666666666667,31.992728241820576)"/><polyline fill="#222" fill-opacity=".029" stroke="#000" stroke-opacity=".02" stroke-width="1" points="0 0 12.413 7.167 0 14.333 0 0" transform="translate(60.65939490848725,31.992728241820576) scale(-1,1)"/><rect width="14.333" height="14.333" x="0" y="0" fill="#222" fill-opacity=".046" stroke="#000" stroke-opacity=".02" stroke-width="1" transform="translate(7.166666666666667,7.166666666666667) rotate(-30,0,0)"/><rect width="14.333" height="14.333" x="0" y="0" fill="#ddd" fill-opacity=".037" stroke="#000" stroke-opacity=".02" stroke-width="1" transform="scale(-1,1) translate(-60.65939490848725,7.166666666666667) rotate(-30,0,0)"/><rect width="14.333" height="14.333" x="0" y="0" fill="#ddd" fill-opacity=".124" stroke="#000" stroke-opacity=".02" stroke-width="1" transform="translate(7.166666666666667,17.659394908487243) rotate(30,0,14.333333333333334)"/><rect width="14.333" height="14.333" x="0" y="0" fill="#ddd" fill-opacity=".02" stroke="#000" stroke-opacity=".02" stroke-width="1" transform="scale(-1,1) translate(-60.65939490848725,17.659394908487243) rotate(30,0,14.333333333333334)"/><rect width="14.333" height="14.333" x="0" y="0" fill="#ddd" fill-opacity=".089" stroke="#000" stroke-opacity=".02" stroke-width="1" transform="scale(1,-1) translate(7.166666666666667,-60.65939490848724) rotate(30,0,14.333333333333334)"/><rect width="14.333" height="14.333" x="0" y="0" fill="#ddd" fill-opacity=".055" stroke="#000" stroke-opacity=".02" stroke-width="1" transform="scale(-1,-1) translate(-60.65939490848725,-60.65939490848724) rotate(30,0,14.333333333333334)"/><rect width="14.333" height="14.333" x="0" y="0" fill="#ddd" fill-opacity=".141" stroke="#000" stroke-opacity=".02" stroke-width="1" transform="scale(1,-1) translate(7.166666666666667,-71.15212315030782) rotate(-30,0,0)"/><rect width="14.333" height="14.333" x="0" y="0" fill="#222" fill-opacity=".081" stroke="#000" stroke-opacity=".02" stroke-width="1" transform="scale(-1,-1) translate(-60.65939490848725,-71.15212315030782) rotate(-30,0,0)"/></svg>