<svg xmlns="http://www.w3.org/2000/svg" width="100" height="100"><rect width="100%" height="100%" x="0" y="0" fill="#995136"/><polyline fill="#ddd" fill-opacity=".037" stroke="#000" stroke-opacity=".02" points="5.5 0 11.167 0 16.667 5.5 16.667 11.167 11.167 16.667 5.5 16.667 0 11.167 0 5.5 5.5 0" transform="translate(0,0)"/><polyline fill="#222" fill-opacity=".098" stroke="#000" stroke-opacity=".02" points="5.5 0 11.167 0 16.667 5.5 16.667 11.167 11.167 16.667 5.5 16.667 0 11.167 0 5.5 5.5 0" transform="translate(16.666666666666668,0)"/><polyline fill="#222" fill-opacity=".081" stroke="#000" stroke-opacity=".02" points="5.5 0 11.167 0 16.667 5.5 16.667 11.167 11.167 16.667 5.5 16.667 0 11.167 0 5.5 5.5 0" transform="translate(33.333333333333336,0)"/><polyline fill="#222" fill-opacity=".115" stroke="#000" stroke-opacity=".02" points="5.5 0 11.167 0 16.667 5.5 16.667 11.167 11.167 16.667 5.5 16.667 0 11.167 0 5.5 5.5 0" transform="translate(50,0)"/><polyline fill="#ddd" fill-opacity=".037" stroke="#000" stroke-opacity=".02" points="5.5 0 11.167 0 16.667 5.5 16.667 11.167 11.167 16.667 5.5 16.667 0 11.167 0 5.5 5.5 0" transform="translate(66.66666666666667,0)"/><polyline fill="#ddd" fill-opacity=".124" stroke="#000" stroke-opacity=".02" points="5.5 0 11.167 0 16.667 5.5 16.667 11.167 11.167 16.667 5.5 16.667 0 11.167 0 5.5 5.5 0" transform="translate(83.33333333333334,0)"/><polyline fill="#ddd" fill-opacity=".037" stroke="#000" stroke-opacity=".02" points="5.5 0 11.167 0 16.667 5.5 16.667 11.167 11.167 16.667 5.5 16.667 0 11.167 0 5.5 5.5 0" transform="translate(0,16.666666666666668)"/><polyline fill="#222" fill-opacity=".063" stroke="#000" stroke-opacity=".02" points="5.5 0 11.167 0 16.667 5.5 16.667 11.167 11.167 16.667 5.5 16.667 0 11.167 0 5.5 5.5 0" transform="translate(16.666666666666668,16.666666666666668)"/><polyline fill="#222" fill-opacity=".133" stroke="#000" stroke-opacity=".02" points="5.5 0 11.167 0 16.667 5.5 16.667 11.167 11.167 16.667 5.5 16.667 0 11.167 0 5.5 5.5 0" transform="translate(33.333333333333336,16.666666666666668)"/><polyline fill="#ddd" fill-opacity=".02" stroke="#000" stroke-opacity=".02" points="5.5 0 11.167 0 16.667 5.5 16.667 11.167 11.167 16.667 5.5 16.667 0 11.167 0 5.5 5.5 0" transform="translate(50,16.666666666666668)"/><polyline fill="#222" fill-opacity=".15" stroke="#000" stroke-opacity=".02" points="5.5 0 11.167 0 16.667 5.5 16.667 11.167 11.167 16.667 5.5 16.667 0 11.167 0 5.5 5.5 0" transform="translate(66.66666666666667,16.666666666666668)"/><polyline fill="#222" fill-opacity=".081" stroke="#000" stroke-opacity=".02" points="5.5 0 11.167 0 16.667 5.5 16.667 11.167 11.167 16.667 5.5 16.667 0 11.167 0 5.5 5.5 0" transform="translate(83.33333333333334,16.666666666666668)"/><polyline fill="#222" fill-opacity=".029" stroke="#000" stroke-opacity=".02" points="5.5 0 11.167 0 16.667 5.5 16.667 11.167 11.167 16.667 5.5 16.667 0 11.167 0 5.5 5.5 0" transform="translate(0,33.333333333333336)"/><polyline fill="#222" fill-opacity=".133" stroke="#000" stroke-opacity=".02" points="5.5 0 11.167 0 16.667 5.5 16.667 11.167 11.167 16.667 5.5 16.667 0 11.167 0 5.5 5.5 0" transform="translate(16.666666666666668,33.333333333333336)"/><polyline fill="#222" fill-opacity=".15" stroke="#000" stroke-opacity=".02" points="5.5 0 11.167 0 16.667 5.5 16.667 11.167 11.167 16.667 5.5 16.667 0 11.167 0 5.5 5.5 0" transform="translate(33.333333333333336,33.333333333333336)"/><polyline fill="#ddd" fill-opacity=".055" stroke="#000" stroke-opacity=".02" points="5.5 0 11.167 0 16.667 5.5 16.667 11.167 11.167 16.667 5.5 16.667 0 11.167 0 5.5 5.5 0" transform="translate(50,33.333333333333336)"/><polyline fill="#ddd" fill-opacity=".141" stroke="#000" stroke-opacity=".02" points="5.5 0 11.167 0 16.667 5.5 16.667 11.167 11.167 16.667 5.5 16.667 0 11.167 0 5.5 5.5 0" transform="translate(66.66666666666667,33.333333333333336)"/><polyline fill="#ddd" fill-opacity=".072" stroke="#000" stroke-opacity=".02" points="5.5 0 11.167 0 16.667 5.5 16.667 11.167 11.167 16.667 5.5 16.667 0 11.167 0 5.5 5.5 0" transform="translate(83.33333333333334,33.333333333333336)"/><polyline fill="#ddd" fill-opacity=".055" stroke="#000" stroke-opacity=".02" points="5.5 0 11.167 0 16.667 5.5 16.667 11.167 11.167 16.667 5.5 16.667 0 11.167 0 5.5 5.5 0" transform="translate(0,50)"/><polyline fill="#ddd" fill-opacity=".141" stroke="#000" stroke-opacity=".02" points="5.5 0 11.167 0 16.667 5.5 16.667 11.167 11.167 16.667 5.5 16.667 0 11.167 0 5.5 5.5 0" transform="translate(16.666666666666668,50)"/><polyline fill="#ddd" fill-opacity=".02" stroke="#000" stroke-opacity=".02" points="5.5 0 11.167 0 16.667 5.5 16.667 11.167 11.167 16.667 5.5 16.667 0 11.167 0 5.5 5.5 0" transform="translate(33.333333333333336,50)"/><polyline fill="#222" fill-opacity=".081" stroke="#000" stroke-opacity=".02" points="5.5 0 11.167 0 16.667 5.5 16.667 11.167 11.167 16.667 5.5 16.667 0 11.167 0 5.5 5.5 0" transform="translate(50,50)"/><polyline fill="#ddd" fill-opacity=".02" stroke="#000" stroke-opacity=".02" points="5.5 0 11.167 0 16.667 5.5 16.667 11.167 11.167 16.667 5.5 16.667 0 11.167 0 5.5 5.5 0" transform="translate(66.66666666666667,50)"/><polyline fill="#222" fill-opacity=".133" stroke="#000" stroke-opacity=".02" points="5.5 0 11.167 0 16.667 5.5 16.667 11.167 11.167 16.667 5.5 16.667 0 11.167 0 5.5 5.5 0" transform="translate(83.33333333333334,50)"/><polyline fill="#ddd" fill-opacity=".141" stroke="#000" stroke-opacity=".02" points="5.5 0 11.167 0 16.667 5.5 16.667 11.167 11.167 16.667 5.5 16.667 0 11.167 0 5.5 5.5 0" transform="translate(0,66.66666666666667)"/><polyline fill="#222" fill-opacity=".098" stroke="#000" stroke-opacity=".02" points="5.5 0 11.167 0 16.667 5.5 16.667 11.167 11.167 16.667 5.5 16.667 0 11.167 0 5.5 5.5 0" transform="translate(16.666666666666668,66.66666666666667)"/><polyline fill="#ddd" fill-opacity=".141" stroke="#000" stroke-opacity=".02" points="5.5 0 11.167 0 16.667 5.5 16.667 11.167 11.167 16.667 5.5 16.667 0 11.167 0 5.5 5.5 0" transform="translate(33.333333333333336,66.66666666666667)"/><polyline fill="#ddd" fill-opacity=".02" stroke="#000" stroke-opacity=".02" points="5.5 0 11.167 0 16.667 5.5 16.667 11.167 11.167 16.667 5.5 16.667 0 11.167 0 5.5 5.5 0" transform="translate(50,66.66666666666667)"/><polyline fill="#222" fill-opacity=".029" stroke="#000" stroke-opacity=".02" points="5.5 0 11.167 0 16.667 5.5 16.667 11.167 11.167 16.667 5.5 16.667 0 11.167 0 5.5 5.5 0" transform="translate(66.66666666666667,66.66666666666667)"/><polyline fill="#ddd" fill-opacity=".072" stroke="#000" stroke-opacity=".02" points="5.5 0 11.167 0 16.667 5.5 16.667 11.167 11.167 16.667 5.5 16.667 0 11.167 0 5.5 5.5 0" transform="translate(83.33333333333334,66.66666666666667)"/><polyline fill="#ddd" fill-opacity=".055" stroke="#000" stroke-opacity=".02" points="5.5 0 11.167 0 16.667 5.5 16.667 11.167 11.167 16.667 5.5 16.667 0 11.167 0 5.5 5.5 0" transform="translate(0,83.33333333333334)"/><polyline fill="#ddd" fill-opacity=".089" stroke="#000" stroke-opacity=".02" points="5.5 0 11.167 0 16.667 5.5 16.667 11.167 11.167 16.667 5.5 16.667 0 11.167 0 5.5 5.5 0" transform="translate(16.666666666666668,83.33333333333334)"/><polyline fill="#222" fill-opacity=".098" stroke="#000" stroke-opacity=".02" points="5.5 0 11.167 0 16.667 5.5 16.667 11.167 11.167 16.667 5.5 16.667 0 11.167 0 5.5 5.5 0" transform="translate(33.333333333333336,83.33333333333334)"/><polyline fill="#222" fill-opacity=".115" stroke="#000" stroke-opacity=".02" points="5.5 0 11.167 0 16.667 5.5 16.667 11.167 11.167 16.667 5.5 16.667 0 11.167 0 5.5 5.5 0" transform="translate(50,83.33333333333334)"/><polyline fill="#ddd" fill-opacity=".089" stroke="#000" stroke-opacity=".02" points="5.5 0 11.167 0 16.667 5.5 16.667 11.167 11.167 16.667 5.5 16.667 0 11.167 0 5.5 5.5 0" transform="translate(66.66666666666667,83.33333333333334)"/><polyline fill="#ddd" fill-opacity=".037" stroke="#000" stroke-opacity=".02" points="5.5 0 11.167 0 16.667 5.5 16.667 11.167 11.167 16.667 5.5 16.667 0 11.167 0 5.5 5.5 0" transform="translate(83.33333333333334,83.33333333333334)"/></svg>