<svg xmlns="http://www.w3.org/2000/svg" width="421" height="421"><rect width="100%" height="100%" x="0" y="0" fill="#45848A"/><rect width="100%" height="10" x="0" y="6" fill="#222" opacity=".063"/><rect width="100%" height="6" x="0" y="30" fill="#222" opacity=".029"/><rect width="100%" height="15" x="0" y="45" fill="#ddd" opacity=".107"/><rect width="100%" height="5" x="0" y="70" fill="#ddd" opacity=".02"/><rect width="100%" height="18" x="0" y="82" fill="#222" opacity=".133"/><rect width="100%" height="7" x="0" y="108" fill="#ddd" opacity=".037"/><rect width="100%" height="19" x="0" y="131" fill="#ddd" opacity=".141"/><rect width="100%" height="17" x="0" y="162" fill="#ddd" opacity=".124"/><rect width="100%" height="14" x="0" y="194" fill="#222" opacity=".098"/><rect width="100%" height="14" x="0" y="221" fill="#222" opacity=".098"/><rect width="100%" height="19" x="0" y="247" fill="#ddd" opacity=".141"/><rect width="100%" height="7" x="0" y="275" fill="#ddd" opacity=".037"/><rect width="100%" height="13" x="0" y="291" fill="#ddd" opacity=".089"/><rect width="100%" height="16" x="0" y="309" fill="#222" opacity=".115"/><rect width="100%" height="5" x="0" y="333" fill="#ddd" opacity=".02"/><rect width="100%" height="14" x="0" y="348" fill="#222" opacity=".098"/><rect width="100%" height="13" x="0" y="375" fill="#ddd" opacity=".089"/><rect width="100%" height="15" x="0" y="406" fill="#ddd" opacity=".107"/><rect width="10" height="100%" x="6" y="0" fill="#222" opacity=".063"/><rect width="6" height="100%" x="30" y="0" fill="#222" opacity=".029"/><rect width="15" height="100%" x="45" y="0" fill="#ddd" opacity=".107"/><rect width="5" height="100%" x="70" y="0" fill="#ddd" opacity=".02"/><rect width="18" height="100%" x="82" y="0" fill="#222" opacity=".133"/><rect width="7" height="100%" x="108" y="0" fill="#ddd" opacity=".037"/><rect width="19" height="100%" x="131" y="0" fill="#ddd" opacity=".141"/><rect width="17" height="100%" x="162" y="0" fill="#ddd" opacity=".124"/><rect width="14" height="100%" x="194" y="0" fill="#222" opacity=".098"/><rect width="14" height="100%" x="221" y="0" fill="#222" opacity=".098"/><rect width="19" height="100%" x="247" y="0" fill="#ddd" opacity=".141"/><rect width="7" height="100%" x="275" y="0" fill="#ddd" opacity=".037"/><rect width="13" height="100%" x="291" y="0" fill="#ddd" opacity=".089"/><rect width="16" height="100%" x="309" y="0" fill="#222" opacity=".115"/><rect width="5" height="100%" x="333" y="0" fill="#ddd" opacity=".02"/><rect width="14" height="100%" x="348" y="0" fill="#222" opacity=".098"/><rect width="13" height="100%" x="375" y="0" fill="#ddd" opacity=".089"/><rect width="15" height="100%" x="406" y="0" fill="#ddd" opacity=".107"/></svg>