<svg xmlns="http://www.w3.org/2000/svg" width="165" height="191"><rect width="100%" height="100%" x="0" y="0" fill="#919D32"/><polyline fill="#222" fill-opacity=".046" stroke="#000" stroke-opacity=".02" points="0 15.935 9.2 0 27.6 0 36.8 15.935 27.6 31.87 9.2 31.87 0 15.935" transform="translate(-18.4,-15.93486742963367)"/><polyline fill="#222" fill-opacity=".046" stroke="#000" stroke-opacity=".02" points="0 15.935 9.2 0 27.6 0 36.8 15.935 27.6 31.87 9.2 31.87 0 15.935" transform="translate(147.2,-15.93486742963367)"/><polyline fill="#222" fill-opacity=".046" stroke="#000" stroke-opacity=".02" points="0 15.935 9.2 0 27.6 0 36.8 15.935 27.6 31.87 9.2 31.87 0 15.935" transform="translate(-18.4,175.28354172597037)"/><polyline fill="#222" fill-opacity=".046" stroke="#000" stroke-opacity=".02" points="0 15.935 9.2 0 27.6 0 36.8 15.935 27.6 31.87 9.2 31.87 0 15.935" transform="translate(147.2,175.28354172597037)"/><polyline fill="#ddd" fill-opacity=".089" stroke="#000" stroke-opacity=".02" points="0 15.935 9.2 0 27.6 0 36.8 15.935 27.6 31.87 9.2 31.87 0 15.935" transform="translate(9.2,0)"/><polyline fill="#ddd" fill-opacity=".089" stroke="#000" stroke-opacity=".02" points="0 15.935 9.2 0 27.6 0 36.8 15.935 27.6 31.87 9.2 31.87 0 15.935" transform="translate(9.2,191.21840915560404)"/><polyline fill="#ddd" fill-opacity=".037" stroke="#000" stroke-opacity=".02" points="0 15.935 9.2 0 27.6 0 36.8 15.935 27.6 31.87 9.2 31.87 0 15.935" transform="translate(36.8,-15.93486742963367)"/><polyline fill="#ddd" fill-opacity=".037" stroke="#000" stroke-opacity=".02" points="0 15.935 9.2 0 27.6 0 36.8 15.935 27.6 31.87 9.2 31.87 0 15.935" transform="translate(36.8,175.28354172597037)"/><polyline fill="#222" fill-opacity=".133" stroke="#000" stroke-opacity=".02" points="0 15.935 9.2 0 27.6 0 36.8 15.935 27.6 31.87 9.2 31.87 0 15.935" transform="translate(64.4,0)"/><polyline fill="#222" fill-opacity=".133" stroke="#000" stroke-opacity=".02" points="0 15.935 9.2 0 27.6 0 36.8 15.935 27.6 31.87 9.2 31.87 0 15.935" transform="translate(64.4,191.21840915560404)"/><polyline fill="#ddd" fill-opacity=".072" stroke="#000" stroke-opacity=".02" points="0 15.935 9.2 0 27.6 0 36.8 15.935 27.6 31.87 9.2 31.87 0 15.935" transform="translate(92,-15.93486742963367)"/><polyline fill="#ddd" fill-opacity=".072" stroke="#000" stroke-opacity=".02" points="0 15.935 9.2 0 27.6 0 36.8 15.935 27.6 31.87 9.2 31.87 0 15.935" transform="translate(92,175.28354172597037)"/><polyline fill="#ddd" fill-opacity=".124" stroke="#000" stroke-opacity=".02" points="0 15.935 9.2 0 27.6 0 36.8 15.935 27.6 31.87 9.2 31.87 0 15.935" transform="translate(119.6,0)"/><polyline fill="#ddd" fill-opacity=".124" stroke="#000" stroke-opacity=".02" points="0 15.935 9.2 0 27.6 0 36.8 15.935 27.6 31.87 9.2 31.87 0 15.935" transform="translate(119.6,191.21840915560404)"/><polyline fill="#ddd" fill-opacity=".089" stroke="#000" stroke-opacity=".02" points="0 15.935 9.2 0 27.6 0 36.8 15.935 27.6 31.87 9.2 31.87 0 15.935" transform="translate(-18.4,15.93486742963367)"/><polyline fill="#ddd" fill-opacity=".089" stroke="#000" stroke-opacity=".02" points="0 15.935 9.2 0 27.6 0 36.8 15.935 27.6 31.87 9.2 31.87 0 15.935" transform="translate(147.2,15.93486742963367)"/><polyline fill="#ddd" fill-opacity=".02" stroke="#000" stroke-opacity=".02" points="0 15.935 9.2 0 27.6 0 36.8 15.935 27.6 31.87 9.2 31.87 0 15.935" transform="translate(9.2,31.86973485926734)"/><polyline fill="#222" fill-opacity=".15" stroke="#000" stroke-opacity=".02" points="0 15.935 9.2 0 27.6 0 36.8 15.935 27.6 31.87 9.2 31.87 0 15.935" transform="translate(36.8,15.93486742963367)"/><polyline fill="#222" fill-opacity=".098" stroke="#000" stroke-opacity=".02" points="0 15.935 9.2 0 27.6 0 36.8 15.935 27.6 31.87 9.2 31.87 0 15.935" transform="translate(64.4,31.86973485926734)"/><polyline fill="#222" fill-opacity=".046" stroke="#000" stroke-opacity=".02" points="0 15.935 9.2 0 27.6 0 36.8 15.935 27.6 31.87 9.2 31.87 0 15.935" transform="translate(92,15.93486742963367)"/><polyline fill="#222" fill-opacity=".15" stroke="#000" stroke-opacity=".02" points="0 15.935 9.2 0 27.6 0 36.8 15.935 27.6 31.87 9.2 31.87 0 15.935" transform="translate(119.6,31.86973485926734)"/><polyline fill="#ddd" fill-opacity=".055" stroke="#000" stroke-opacity=".02" points="0 15.935 9.2 0 27.6 0 36.8 15.935 27.6 31.87 9.2 31.87 0 15.935" transform="translate(-18.4,47.80460228890101)"/><polyline fill="#ddd" fill-opacity=".055" stroke="#000" stroke-opacity=".02" points="0 15.935 9.2 0 27.6 0 36.8 15.935 27.6 31.87 9.2 31.87 0 15.935" transform="translate(147.2,47.80460228890101)"/><polyline fill="#ddd" fill-opacity=".072" stroke="#000" stroke-opacity=".02" points="0 15.935 9.2 0 27.6 0 36.8 15.935 27.6 31.87 9.2 31.87 0 15.935" transform="translate(9.2,63.73946971853468)"/><polyline fill="#222" fill-opacity=".133" stroke="#000" stroke-opacity=".02" points="0 15.935 9.2 0 27.6 0 36.8 15.935 27.6 31.87 9.2 31.87 0 15.935" transform="translate(36.8,47.80460228890101)"/><polyline fill="#ddd" fill-opacity=".02" stroke="#000" stroke-opacity=".02" points="0 15.935 9.2 0 27.6 0 36.8 15.935 27.6 31.87 9.2 31.87 0 15.935" transform="translate(64.4,63.73946971853468)"/><polyline fill="#ddd" fill-opacity=".141" stroke="#000" stroke-opacity=".02" points="0 15.935 9.2 0 27.6 0 36.8 15.935 27.6 31.87 9.2 31.87 0 15.935" transform="translate(92,47.80460228890101)"/><polyline fill="#ddd" fill-opacity=".107" stroke="#000" stroke-opacity=".02" points="0 15.935 9.2 0 27.6 0 36.8 15.935 27.6 31.87 9.2 31.87 0 15.935" transform="translate(119.6,63.73946971853468)"/><polyline fill="#ddd" fill-opacity=".089" stroke="#000" stroke-opacity=".02" points="0 15.935 9.2 0 27.6 0 36.8 15.935 27.6 31.87 9.2 31.87 0 15.935" transform="translate(-18.4,79.67433714816835)"/><polyline fill="#ddd" fill-opacity=".089" stroke="#000" stroke-opacity=".02" points="0 15.935 9.2 0 27.6 0 36.8 15.935 27.6 31.87 9.2 31.87 0 15.935" transform="translate(147.2,79.67433714816835)"/><polyline fill="#222" fill-opacity=".115" stroke="#000" stroke-opacity=".02" points="0 15.935 9.2 0 27.6 0 36.8 15.935 27.6 31.87 9.2 31.87 0 15.935" transform="translate(9.2,95.60920457780202)"/><polyline fill="#222" fill-opacity=".063" stroke="#000" stroke-opacity=".02" points="0 15.935 9.2 0 27.6 0 36.8 15.935 27.6 31.87 9.2 31.87 0 15.935" transform="translate(36.8,79.67433714816835)"/><polyline fill="#ddd" fill-opacity=".124" stroke="#000" stroke-opacity=".02" points="0 15.935 9.2 0 27.6 0 36.8 15.935 27.6 31.87 9.2 31.87 0 15.935" transform="translate(64.4,95.60920457780202)"/><polyline fill="#222" fill-opacity=".029" stroke="#000" stroke-opacity=".02" points="0 15.935 9.2 0 27.6 0 36.8 15.935 27.6 31.87 9.2 31.87 0 15.935" transform="translate(92,79.67433714816835)"/><polyline fill="#222" fill-opacity=".063" stroke="#000" stroke-opacity=".02" points="0 15.935 9.2 0 27.6 0 36.8 15.935 27.6 31.87 9.2 31.87 0 15.935" transform="translate(119.6,95.60920457780202)"/><polyline fill="#222" fill-opacity=".046" stroke="#000" stroke-opacity=".02" points="0 15.935 9.2 0 27.6 0 36.8 15.935 27.6 31.87 9.2 31.87 0 15.935" transform="translate(-18.4,111.54407200743569)"/><polyline fill="#222" fill-opacity=".046" stroke="#000" stroke-opacity=".02" points="0 15.935 9.2 0 27.6 0 36.8 15.935 27.6 31.87 9.2 31.87 0 15.935" transform="translate(147.2,111.54407200743569)"/><polyline fill="#ddd" fill-opacity=".107" stroke="#000" stroke-opacity=".02" points="0 15.935 9.2 0 27.6 0 36.8 15.935 27.6 31.87 9.2 31.87 0 15.935" transform="translate(9.2,127.47893943706936)"/><polyline fill="#ddd" fill-opacity=".141" stroke="#000" stroke-opacity=".02" points="0 15.935 9.2 0 27.6 0 36.8 15.935 27.6 31.87 9.2 31.87 0 15.935" transform="translate(36.8,111.54407200743569)"/><polyline fill="#ddd" fill-opacity=".141" stroke="#000" stroke-opacity=".02" points="0 15.935 9.2 0 27.6 0 36.8 15.935 27.6 31.87 9.2 31.87 0 15.935" transform="translate(64.4,127.47893943706936)"/><polyline fill="#222" fill-opacity=".133" stroke="#000" stroke-opacity=".02" points="0 15.935 9.2 0 27.6 0 36.8 15.935 27.6 31.87 9.2 31.87 0 15.935" transform="translate(92,111.54407200743569)"/><polyline fill="#ddd" fill-opacity=".072" stroke="#000" stroke-opacity=".02" points="0 15.935 9.2 0 27.6 0 36.8 15.935 27.6 31.87 9.2 31.87 0 15.935" transform="translate(119.6,127.47893943706936)"/><polyline fill="#ddd" fill-opacity=".089" stroke="#000" stroke-opacity=".02" points="0 15.935 9.2 0 27.6 0 36.8 15.935 27.6 31.87 9.2 31.87 0 15.935" transform="translate(-18.4,143.41380686670303)"/><polyline fill="#ddd" fill-opacity=".089" stroke="#000" stroke-opacity=".02" points="0 15.935 9.2 0 27.6 0 36.8 15.935 27.6 31.87 9.2 31.87 0 15.935" transform="translate(147.2,143.41380686670303)"/><polyline fill="#222" fill-opacity=".115" stroke="#000" stroke-opacity=".02" points="0 15.935 9.2 0 27.6 0 36.8 15.935 27.6 31.87 9.2 31.87 0 15.935" transform="translate(9.2,159.3486742963367)"/><polyline fill="#ddd" fill-opacity=".037" stroke="#000" stroke-opacity=".02" points="0 15.935 9.2 0 27.6 0 36.8 15.935 27.6 31.87 9.2 31.87 0 15.935" transform="translate(36.8,143.41380686670303)"/><polyline fill="#222" fill-opacity=".115" stroke="#000" stroke-opacity=".02" points="0 15.935 9.2 0 27.6 0 36.8 15.935 27.6 31.87 9.2 31.87 0 15.935" transform="translate(64.4,159.3486742963367)"/><polyline fill="#ddd" fill-opacity=".02" stroke="#000" stroke-opacity=".02" points="0 15.935 9.2 0 27.6 0 36.8 15.935 27.6 31.87 9.2 31.87 0 15.935" transform="translate(92,143.41380686670303)"/><polyline fill="#ddd" fill-opacity=".089" stroke="#000" stroke-opacity=".02" points="0 15.935 9.2 0 27.6 0 36.8 15.935 27.6 31.87 9.2 31.87 0 15.935" transform="translate(119.6,159.3486742963367)"/></svg>