<svg xmlns="http://www.w3.org/2000/svg" width="160" height="160"><rect width="100%" height="100%" x="0" y="0" fill="#3F7390"/><rect width="26.667" height="26.667" x="0" y="0" fill="#222" fill-opacity=".063" stroke="#000" stroke-opacity=".02"/><rect width="26.667" height="26.667" x="26.667" y="0" fill="#222" fill-opacity=".029" stroke="#000" stroke-opacity=".02"/><rect width="26.667" height="26.667" x="53.333" y="0" fill="#ddd" fill-opacity=".037" stroke="#000" stroke-opacity=".02"/><rect width="26.667" height="26.667" x="80" y="0" fill="#222" fill-opacity=".046" stroke="#000" stroke-opacity=".02"/><rect width="26.667" height="26.667" x="106.667" y="0" fill="#ddd" fill-opacity=".124" stroke="#000" stroke-opacity=".02"/><rect width="26.667" height="26.667" x="133.333" y="0" fill="#222" fill-opacity=".029" stroke="#000" stroke-opacity=".02"/><rect width="26.667" height="26.667" x="0" y="26.667" fill="#222" fill-opacity=".098" stroke="#000" stroke-opacity=".02"/><rect width="26.667" height="26.667" x="26.667" y="26.667" fill="#222" fill-opacity=".081" stroke="#000" stroke-opacity=".02"/><rect width="26.667" height="26.667" x="53.333" y="26.667" fill="#222" fill-opacity=".15" stroke="#000" stroke-opacity=".02"/><rect width="26.667" height="26.667" x="80" y="26.667" fill="#222" fill-opacity=".046" stroke="#000" stroke-opacity=".02"/><rect width="26.667" height="26.667" x="106.667" y="26.667" fill="#ddd" fill-opacity=".072" stroke="#000" stroke-opacity=".02"/><rect width="26.667" height="26.667" x="133.333" y="26.667" fill="#ddd" fill-opacity=".072" stroke="#000" stroke-opacity=".02"/><rect width="26.667" height="26.667" x="0" y="53.333" fill="#ddd" fill-opacity=".107" stroke="#000" stroke-opacity=".02"/><rect width="26.667" height="26.667" x="26.667" y="53.333" fill="#ddd" fill-opacity=".02" stroke="#000" stroke-opacity=".02"/><rect width="26.667" height="26.667" x="53.333" y="53.333" fill="#222" fill-opacity=".081" stroke="#000" stroke-opacity=".02"/><rect width="26.667" height="26.667" x="80" y="53.333" fill="#222" fill-opacity=".029" stroke="#000" stroke-opacity=".02"/><rect width="26.667" height="26.667" x="106.667" y="53.333" fill="#ddd" fill-opacity=".037" stroke="#000" stroke-opacity=".02"/><rect width="26.667" height="26.667" x="133.333" y="53.333" fill="#222" fill-opacity=".046" stroke="#000" stroke-opacity=".02"/><rect width="26.667" height="26.667" x="0" y="80" fill="#222" fill-opacity=".029" stroke="#000" stroke-opacity=".02"/><rect width="26.667" height="26.667" x="26.667" y="80" fill="#222" fill-opacity=".081" stroke="#000" stroke-opacity=".02"/><rect width="26.667" height="26.667" x="53.333" y="80" fill="#222" fill-opacity=".098" stroke="#000" stroke-opacity=".02"/><rect width="26.667" height="26.667" x="80" y="80" fill="#222" fill-opacity=".133" stroke="#000" stroke-opacity=".02"/><rect width="26.667" height="26.667" x="106.667" y="80" fill="#222" fill-opacity=".029" stroke="#000" stroke-opacity=".02"/><rect width="26.667" height="26.667" x="133.333" y="80" fill="#ddd" fill-opacity=".141" stroke="#000" stroke-opacity=".02"/><rect width="26.667" height="26.667" x="0" y="106.667" fill="#222" fill-opacity=".046" stroke="#000" stroke-opacity=".02"/><rect width="26.667" height="26.667" x="26.667" y="106.667" fill="#ddd" fill-opacity=".107" stroke="#000" stroke-opacity=".02"/><rect width="26.667" height="26.667" x="53.333" y="106.667" fill="#ddd" fill-opacity=".089" stroke="#000" stroke-opacity=".02"/><rect width="26.667" height="26.667" x="80" y="106.667" fill="#ddd" fill-opacity=".141" stroke="#000" stroke-opacity=".02"/><rect width="26.667" height="26.667" x="106.667" y="106.667" fill="#222" fill-opacity=".115" stroke="#000" stroke-opacity=".02"/><rect width="26.667" height="26.667" x="133.333" y="106.667" fill="#ddd" fill-opacity=".141" stroke="#000" stroke-opacity=".02"/><rect width="26.667" height="26.667" x="0" y="133.333" fill="#222" fill-opacity=".063" stroke="#000" stroke-opacity=".02"/><rect width="26.667" height="26.667" x="26.667" y="133.333" fill="#ddd" fill-opacity=".089" stroke="#000" stroke-opacity=".02"/><rect width="26.667" height="26.667" x="53.333" y="133.333" fill="#ddd" fill-opacity=".037" stroke="#000" stroke-opacity=".02"/><rect width="26.667" height="26.667" x="80" y="133.333" fill="#222" fill-opacity=".063" stroke="#000" stroke-opacity=".02"/><rect width="26.667" height="26.667" x="106.667" y="133.333" fill="#ddd" fill-opacity=".141" stroke="#000" stroke-opacity=".02"/><rect width="26.667" height="26.667" x="133.333" y="133.333" fill="#222" fill-opacity=".098" stroke="#000" stroke-opacity=".02"/></svg>