<svg xmlns="http://www.w3.org/2000/svg" width="176" height="176"><rect width="100%" height="100%" x="0" y="0" fill="#903F62"/><polyline fill="#222" fill-opacity=".046" stroke="#000" stroke-opacity=".02" points="0 0 22 22 0 22 0 0" transform="translate(0,22) scale(1,-1)"/><polyline fill="#222" fill-opacity=".046" stroke="#000" stroke-opacity=".02" points="0 0 22 22 0 22 0 0" transform="translate(44,22) scale(-1,-1)"/><polyline fill="#222" fill-opacity=".046" stroke="#000" stroke-opacity=".02" points="0 0 22 22 0 22 0 0" transform="translate(0,22) scale(1,1)"/><polyline fill="#222" fill-opacity=".046" stroke="#000" stroke-opacity=".02" points="0 0 22 22 0 22 0 0" transform="translate(44,22) scale(-1,1)"/><polyline fill="#ddd" fill-opacity=".124" stroke="#000" stroke-opacity=".02" points="0 0 22 22 0 22 0 0" transform="translate(66,0) scale(-1,1)"/><polyline fill="#ddd" fill-opacity=".124" stroke="#000" stroke-opacity=".02" points="0 0 22 22 0 22 0 0" transform="translate(66,44) scale(1,-1)"/><polyline fill="#222" fill-opacity=".081" stroke="#000" stroke-opacity=".02" points="0 0 22 22 0 22 0 0" transform="translate(66,44) scale(-1,-1)"/><polyline fill="#222" fill-opacity=".081" stroke="#000" stroke-opacity=".02" points="0 0 22 22 0 22 0 0" transform="translate(66,0) scale(1,1)"/><polyline fill="#222" fill-opacity=".081" stroke="#000" stroke-opacity=".02" points="0 0 22 22 0 22 0 0" transform="translate(88,22) scale(1,-1)"/><polyline fill="#222" fill-opacity=".081" stroke="#000" stroke-opacity=".02" points="0 0 22 22 0 22 0 0" transform="translate(132,22) scale(-1,-1)"/><polyline fill="#222" fill-opacity=".081" stroke="#000" stroke-opacity=".02" points="0 0 22 22 0 22 0 0" transform="translate(88,22) scale(1,1)"/><polyline fill="#222" fill-opacity=".081" stroke="#000" stroke-opacity=".02" points="0 0 22 22 0 22 0 0" transform="translate(132,22) scale(-1,1)"/><polyline fill="#222" fill-opacity=".029" stroke="#000" stroke-opacity=".02" points="0 0 22 22 0 22 0 0" transform="translate(154,0) scale(-1,1)"/><polyline fill="#222" fill-opacity=".029" stroke="#000" stroke-opacity=".02" points="0 0 22 22 0 22 0 0" transform="translate(154,44) scale(1,-1)"/><polyline fill="#ddd" fill-opacity=".124" stroke="#000" stroke-opacity=".02" points="0 0 22 22 0 22 0 0" transform="translate(154,44) scale(-1,-1)"/><polyline fill="#ddd" fill-opacity=".124" stroke="#000" stroke-opacity=".02" points="0 0 22 22 0 22 0 0" transform="translate(154,0) scale(1,1)"/><polyline fill="#ddd" fill-opacity=".124" stroke="#000" stroke-opacity=".02" points="0 0 22 22 0 22 0 0" transform="translate(22,44) scale(-1,1)"/><polyline fill="#ddd" fill-opacity=".124" stroke="#000" stroke-opacity=".02" points="0 0 22 22 0 22 0 0" transform="translate(22,88) scale(1,-1)"/><polyline fill="#ddd" fill-opacity=".124" stroke="#000" stroke-opacity=".02" points="0 0 22 22 0 22 0 0" transform="translate(22,88) scale(-1,-1)"/><polyline fill="#ddd" fill-opacity=".124" stroke="#000" stroke-opacity=".02" points="0 0 22 22 0 22 0 0" transform="translate(22,44) scale(1,1)"/><polyline fill="#ddd" fill-opacity=".124" stroke="#000" stroke-opacity=".02" points="0 0 22 22 0 22 0 0" transform="translate(44,66) scale(1,-1)"/><polyline fill="#ddd" fill-opacity=".124" stroke="#000" stroke-opacity=".02" points="0 0 22 22 0 22 0 0" transform="translate(88,66) scale(-1,-1)"/><polyline fill="#ddd" fill-opacity=".124" stroke="#000" stroke-opacity=".02" points="0 0 22 22 0 22 0 0" transform="translate(44,66) scale(1,1)"/><polyline fill="#ddd" fill-opacity=".124" stroke="#000" stroke-opacity=".02" points="0 0 22 22 0 22 0 0" transform="translate(88,66) scale(-1,1)"/><polyline fill="#222" fill-opacity=".098" stroke="#000" stroke-opacity=".02" points="0 0 22 22 0 22 0 0" transform="translate(110,44) scale(-1,1)"/><polyline fill="#222" fill-opacity=".098" stroke="#000" stroke-opacity=".02" points="0 0 22 22 0 22 0 0" transform="translate(110,88) scale(1,-1)"/><polyline fill="#222" fill-opacity=".098" stroke="#000" stroke-opacity=".02" points="0 0 22 22 0 22 0 0" transform="translate(110,88) scale(-1,-1)"/><polyline fill="#222" fill-opacity=".098" stroke="#000" stroke-opacity=".02" points="0 0 22 22 0 22 0 0" transform="translate(110,44) scale(1,1)"/><polyline fill="#222" fill-opacity=".098" stroke="#000" stroke-opacity=".02" points="0 0 22 22 0 22 0 0" transform="translate(132,66) scale(1,-1)"/><polyline fill="#222" fill-opacity=".098" stroke="#000" stroke-opacity=".02" points="0 0 22 22 0 22 0 0" transform="translate(176,66) scale(-1,-1)"/><polyline fill="#222" fill-opacity=".098" stroke="#000" stroke-opacity=".02" points="0 0 22 22 0 22 0 0" transform="translate(132,66) scale(1,1)"/><polyline fill="#222" fill-opacity=".098" stroke="#000" stroke-opacity=".02" points="0 0 22 22 0 22 0 0" transform="translate(176,66) scale(-1,1)"/><polyline fill="#222" fill-opacity=".133" stroke="#000" stroke-opacity=".02" points="0 0 22 22 0 22 0 0" transform="translate(0,110) scale(1,-1)"/><polyline fill="#222" fill-opacity=".133" stroke="#000" stroke-opacity=".02" points="0 0 22 22 0 22 0 0" transform="translate(44,110) scale(-1,-1)"/><polyline fill="#222" fill-opacity=".133" stroke="#000" stroke-opacity=".02" points="0 0 22 22 0 22 0 0" transform="translate(0,110) scale(1,1)"/><polyline fill="#222" fill-opacity=".133" stroke="#000" stroke-opacity=".02" points="0 0 22 22 0 22 0 0" transform="translate(44,110) scale(-1,1)"/><polyline fill="#ddd" fill-opacity=".037" stroke="#000" stroke-opacity=".02" points="0 0 22 22 0 22 0 0" transform="translate(66,88) scale(-1,1)"/><polyline fill="#ddd" fill-opacity=".037" stroke="#000" stroke-opacity=".02" points="0 0 22 22 0 22 0 0" transform="translate(66,132) scale(1,-1)"/><polyline fill="#222" fill-opacity=".15" stroke="#000" stroke-opacity=".02" points="0 0 22 22 0 22 0 0" transform="translate(66,132) scale(-1,-1)"/><polyline fill="#222" fill-opacity=".15" stroke="#000" stroke-opacity=".02" points="0 0 22 22 0 22 0 0" transform="translate(66,88) scale(1,1)"/><polyline fill="#222" fill-opacity=".15" stroke="#000" stroke-opacity=".02" points="0 0 22 22 0 22 0 0" transform="translate(88,110) scale(1,-1)"/><polyline fill="#222" fill-opacity=".15" stroke="#000" stroke-opacity=".02" points="0 0 22 22 0 22 0 0" transform="translate(132,110) scale(-1,-1)"/><polyline fill="#222" fill-opacity=".15" stroke="#000" stroke-opacity=".02" points="0 0 22 22 0 22 0 0" transform="translate(88,110) scale(1,1)"/><polyline fill="#222" fill-opacity=".15" stroke="#000" stroke-opacity=".02" points="0 0 22 22 0 22 0 0" transform="translate(132,110) scale(-1,1)"/><polyline fill="#ddd" fill-opacity=".124" stroke="#000" stroke-opacity=".02" points="0 0 22 22 0 22 0 0" transform="translate(154,88) scale(-1,1)"/><polyline fill="#ddd" fill-opacity=".124" stroke="#000" stroke-opacity=".02" points="0 0 22 22 0 22 0 0" transform="translate(154,132) scale(1,-1)"/><polyline fill="#222" fill-opacity=".029" stroke="#000" stroke-opacity=".02" points="0 0 22 22 0 22 0 0" transform="translate(154,132) scale(-1,-1)"/><polyline fill="#222" fill-opacity=".029" stroke="#000" stroke-opacity=".02" points="0 0 22 22 0 22 0 0" transform="translate(154,88) scale(1,1)"/><polyline fill="#222" fill-opacity=".029" stroke="#000" stroke-opacity=".02" points="0 0 22 22 0 22 0 0" transform="translate(22,132) scale(-1,1)"/><polyline fill="#222" fill-opacity=".029" stroke="#000" stroke-opacity=".02" points="0 0 22 22 0 22 0 0" transform="translate(22,176) scale(1,-1)"/><polyline fill="#ddd" fill-opacity=".124" stroke="#000" stroke-opacity=".02" points="0 0 22 22 0 22 0 0" transform="translate(22,176) scale(-1,-1)"/><polyline fill="#ddd" fill-opacity=".124" stroke="#000" stroke-opacity=".02" points="0 0 22 22 0 22 0 0" transform="translate(22,132) scale(1,1)"/><polyline fill="#ddd" fill-opacity=".124" stroke="#000" stroke-opacity=".02" points="0 0 22 22 0 22 0 0" transform="translate(44,154) scale(1,-1)"/><polyline fill="#ddd" fill-opacity=".124" stroke="#000" stroke-opacity=".02" points="0 0 22 22 0 22 0 0" transform="translate(88,154) scale(-1,-1)"/><polyline fill="#ddd" fill-opacity=".124" stroke="#000" stroke-opacity=".02" points="0 0 22 22 0 22 0 0" transform="translate(44,154) scale(1,1)"/><polyline fill="#ddd" fill-opacity=".124" stroke="#000" stroke-opacity=".02" points="0 0 22 22 0 22 0 0" transform="translate(88,154) scale(-1,1)"/><polyline fill="#222" fill-opacity=".029" stroke="#000" stroke-opacity=".02" points="0 0 22 22 0 22 0 0" transform="translate(110,132) scale(-1,1)"/><polyline fill="#222" fill-opacity=".029" stroke="#000" stroke-opacity=".02" points="0 0 22 22 0 22 0 0" transform="translate(110,176) scale(1,-1)"/><polyline fill="#ddd" fill-opacity=".037" stroke="#000" stroke-opacity=".02" points="0 0 22 22 0 22 0 0" transform="translate(110,176) scale(-1,-1)"/><polyline fill="#ddd" fill-opacity=".037" stroke="#000" stroke-opacity=".02" points="0 0 22 22 0 22 0 0" transform="translate(110,132) scale(1,1)"/><polyline fill="#ddd" fill-opacity=".037" stroke="#000" stroke-opacity=".02" points="0 0 22 22 0 22 0 0" transform="translate(132,154) scale(1,-1)"/><polyline fill="#ddd" fill-opacity=".037" stroke="#000" stroke-opacity=".02" points="0 0 22 22 0 22 0 0" transform="translate(176,154) scale(-1,-1)"/><polyline fill="#ddd" fill-opacity=".037" stroke="#000" stroke-opacity=".02" points="0 0 22 22 0 22 0 0" transform="translate(132,154) scale(1,1)"/><polyline fill="#ddd" fill-opacity=".037" stroke="#000" stroke-opacity=".02" points="0 0 22 22 0 22 0 0" transform="translate(176,154) scale(-1,1)"/></svg>