<svg xmlns="http://www.w3.org/2000/svg" width="140" height="140"><rect width="100%" height="100%" x="0" y="0" fill="#418E46"/><rect width="23.333" height="23.333" x="0" y="0" fill="#ddd" fill-opacity=".055" stroke="#000" stroke-opacity=".02"/><rect width="23.333" height="23.333" x="23.333" y="0" fill="#222" fill-opacity=".029" stroke="#000" stroke-opacity=".02"/><rect width="23.333" height="23.333" x="46.667" y="0" fill="#222" fill-opacity=".115" stroke="#000" stroke-opacity=".02"/><rect width="23.333" height="23.333" x="70" y="0" fill="#ddd" fill-opacity=".089" stroke="#000" stroke-opacity=".02"/><rect width="23.333" height="23.333" x="93.333" y="0" fill="#ddd" fill-opacity=".072" stroke="#000" stroke-opacity=".02"/><rect width="23.333" height="23.333" x="116.667" y="0" fill="#ddd" fill-opacity=".107" stroke="#000" stroke-opacity=".02"/><rect width="23.333" height="23.333" x="0" y="23.333" fill="#222" fill-opacity=".098" stroke="#000" stroke-opacity=".02"/><rect width="23.333" height="23.333" x="23.333" y="23.333" fill="#ddd" fill-opacity=".02" stroke="#000" stroke-opacity=".02"/><rect width="23.333" height="23.333" x="46.667" y="23.333" fill="#222" fill-opacity=".133" stroke="#000" stroke-opacity=".02"/><rect width="23.333" height="23.333" x="70" y="23.333" fill="#ddd" fill-opacity=".037" stroke="#000" stroke-opacity=".02"/><rect width="23.333" height="23.333" x="93.333" y="23.333" fill="#ddd" fill-opacity=".141" stroke="#000" stroke-opacity=".02"/><rect width="23.333" height="23.333" x="116.667" y="23.333" fill="#222" fill-opacity=".115" stroke="#000" stroke-opacity=".02"/><rect width="23.333" height="23.333" x="0" y="46.667" fill="#ddd" fill-opacity=".107" stroke="#000" stroke-opacity=".02"/><rect width="23.333" height="23.333" x="23.333" y="46.667" fill="#222" fill-opacity=".133" stroke="#000" stroke-opacity=".02"/><rect width="23.333" height="23.333" x="46.667" y="46.667" fill="#ddd" fill-opacity=".107" stroke="#000" stroke-opacity=".02"/><rect width="23.333" height="23.333" x="70" y="46.667" fill="#ddd" fill-opacity=".089" stroke="#000" stroke-opacity=".02"/><rect width="23.333" height="23.333" x="93.333" y="46.667" fill="#ddd" fill-opacity=".089" stroke="#000" stroke-opacity=".02"/><rect width="23.333" height="23.333" x="116.667" y="46.667" fill="#222" fill-opacity=".063" stroke="#000" stroke-opacity=".02"/><rect width="23.333" height="23.333" x="0" y="70" fill="#222" fill-opacity=".029" stroke="#000" stroke-opacity=".02"/><rect width="23.333" height="23.333" x="23.333" y="70" fill="#222" fill-opacity=".15" stroke="#000" stroke-opacity=".02"/><rect width="23.333" height="23.333" x="46.667" y="70" fill="#222" fill-opacity=".098" stroke="#000" stroke-opacity=".02"/><rect width="23.333" height="23.333" x="70" y="70" fill="#222" fill-opacity=".029" stroke="#000" stroke-opacity=".02"/><rect width="23.333" height="23.333" x="93.333" y="70" fill="#222" fill-opacity=".133" stroke="#000" stroke-opacity=".02"/><rect width="23.333" height="23.333" x="116.667" y="70" fill="#222" fill-opacity=".029" stroke="#000" stroke-opacity=".02"/><rect width="23.333" height="23.333" x="0" y="93.333" fill="#222" fill-opacity=".133" stroke="#000" stroke-opacity=".02"/><rect width="23.333" height="23.333" x="23.333" y="93.333" fill="#222" fill-opacity=".115" stroke="#000" stroke-opacity=".02"/><rect width="23.333" height="23.333" x="46.667" y="93.333" fill="#ddd" fill-opacity=".072" stroke="#000" stroke-opacity=".02"/><rect width="23.333" height="23.333" x="70" y="93.333" fill="#222" fill-opacity=".133" stroke="#000" stroke-opacity=".02"/><rect width="23.333" height="23.333" x="93.333" y="93.333" fill="#222" fill-opacity=".115" stroke="#000" stroke-opacity=".02"/><rect width="23.333" height="23.333" x="116.667" y="93.333" fill="#222" fill-opacity=".133" stroke="#000" stroke-opacity=".02"/><rect width="23.333" height="23.333" x="0" y="116.667" fill="#222" fill-opacity=".029" stroke="#000" stroke-opacity=".02"/><rect width="23.333" height="23.333" x="23.333" y="116.667" fill="#ddd" fill-opacity=".037" stroke="#000" stroke-opacity=".02"/><rect width="23.333" height="23.333" x="46.667" y="116.667" fill="#ddd" fill-opacity=".089" stroke="#000" stroke-opacity=".02"/><rect width="23.333" height="23.333" x="70" y="116.667" fill="#222" fill-opacity=".063" stroke="#000" stroke-opacity=".02"/><rect width="23.333" height="23.333" x="93.333" y="116.667" fill="#222" fill-opacity=".115" stroke="#000" stroke-opacity=".02"/><rect width="23.333" height="23.333" x="116.667" y="116.667" fill="#222" fill-opacity=".15" stroke="#000" stroke-opacity=".02"/></svg>