<svg xmlns="http://www.w3.org/2000/svg" width="415" height="415"><rect width="100%" height="100%" x="0" y="0" fill="#8E8941"/><rect width="100%" height="5" x="0" y="17" fill="#ddd" opacity=".02"/><rect width="100%" height="6" x="0" y="39" fill="#222" opacity=".029"/><rect width="100%" height="13" x="0" y="52" fill="#ddd" opacity=".089"/><rect width="100%" height="6" x="0" y="83" fill="#222" opacity=".029"/><rect width="100%" height="19" x="0" y="104" fill="#ddd" opacity=".141"/><rect width="100%" height="17" x="0" y="136" fill="#ddd" opacity=".124"/><rect width="100%" height="10" x="0" y="167" fill="#222" opacity=".063"/><rect width="100%" height="13" x="0" y="195" fill="#ddd" opacity=".089"/><rect width="100%" height="10" x="0" y="219" fill="#222" opacity=".063"/><rect width="100%" height="12" x="0" y="237" fill="#222" opacity=".081"/><rect width="100%" height="5" x="0" y="261" fill="#ddd" opacity=".02"/><rect width="100%" height="8" x="0" y="272" fill="#222" opacity=".046"/><rect width="100%" height="17" x="0" y="295" fill="#ddd" opacity=".124"/><rect width="100%" height="6" x="0" y="318" fill="#222" opacity=".029"/><rect width="100%" height="13" x="0" y="332" fill="#ddd" opacity=".089"/><rect width="100%" height="11" x="0" y="354" fill="#ddd" opacity=".072"/><rect width="100%" height="19" x="0" y="375" fill="#ddd" opacity=".141"/><rect width="100%" height="6" x="0" y="409" fill="#222" opacity=".029"/><rect width="5" height="100%" x="17" y="0" fill="#ddd" opacity=".02"/><rect width="6" height="100%" x="39" y="0" fill="#222" opacity=".029"/><rect width="13" height="100%" x="52" y="0" fill="#ddd" opacity=".089"/><rect width="6" height="100%" x="83" y="0" fill="#222" opacity=".029"/><rect width="19" height="100%" x="104" y="0" fill="#ddd" opacity=".141"/><rect width="17" height="100%" x="136" y="0" fill="#ddd" opacity=".124"/><rect width="10" height="100%" x="167" y="0" fill="#222" opacity=".063"/><rect width="13" height="100%" x="195" y="0" fill="#ddd" opacity=".089"/><rect width="10" height="100%" x="219" y="0" fill="#222" opacity=".063"/><rect width="12" height="100%" x="237" y="0" fill="#222" opacity=".081"/><rect width="5" height="100%" x="261" y="0" fill="#ddd" opacity=".02"/><rect width="8" height="100%" x="272" y="0" fill="#222" opacity=".046"/><rect width="17" height="100%" x="295" y="0" fill="#ddd" opacity=".124"/><rect width="6" height="100%" x="318" y="0" fill="#222" opacity=".029"/><rect width="13" height="100%" x="332" y="0" fill="#ddd" opacity=".089"/><rect width="11" height="100%" x="354" y="0" fill="#ddd" opacity=".072"/><rect width="19" height="100%" x="375" y="0" fill="#ddd" opacity=".141"/><rect width="6" height="100%" x="409" y="0" fill="#222" opacity=".029"/></svg>